<svg fill="#ffff00" xmlns="http://www.w3.org/2000/svg"  viewBox="0 0 16 16" width="16px" height="16px"><path d="M 7.5 1 C 3.9 1 1 3.9 1 7.5 C 1 11.1 3.9 14 7.5 14 C 11.1 14 14 11 14 7.5 C 14 6.8 13.899219 6.1 13.699219 5.5 L 12.900391 6.3007812 C 13.000391 6.6007812 13 7 13 7.5 C 13 10.5 10.5 13 7.5 13 C 4.5 13 2 10.5 2 7.5 C 2 4.5 4.5 2 7.5 2 C 8.6 2 9.5003906 2.3007813 10.400391 2.8007812 L 11.099609 2 C 10.099609 1.4 8.8 1 7.5 1 z M 12.5 2.7929688 L 12.146484 3.1464844 L 6.5 8.7929688 L 4.8535156 7.1464844 L 4.5 6.7929688 L 3.7929688 7.5 L 4.1464844 7.8535156 L 6.5 10.207031 L 12.853516 3.8535156 L 13.207031 3.5 L 12.5 2.7929688 z"/></svg>